<?xml version="1.0" standalone="no"?>
<!DOCTYPE svg PUBLIC "-//W3C//DTD SVG 20010904//EN"
 "http://www.w3.org/TR/2001/REC-SVG-20010904/DTD/svg10.dtd">
<svg version="1.0" xmlns="http://www.w3.org/2000/svg"
 width="558.000000pt" height="558.000000pt" viewBox="0 0 558.000000 558.000000"
 preserveAspectRatio="xMidYMid meet">
<metadata>
Created by potrace 1.11, written by Peter Selinger 2001-2013
</metadata>
<g transform="translate(0.000000,558.000000) scale(0.100000,-0.100000)"
fill="#000000" stroke="none">
<path d="M2600 5466 c26 -23 1804 -1482 1818 -1490 9 -6 12 147 12 748 l0 756
-922 0 c-780 0 -920 -2 -908 -14z"/>
<path d="M4680 4622 l0 -858 33 -31 c25 -23 446 -370 505 -416 9 -8 12 209 12
1077 l0 1086 -275 0 -275 0 0 -858z"/>
<path d="M1694 5440 c-350 -18 -631 -98 -899 -258 -646 -385 -900 -1137 -644
-1906 94 -282 245 -499 601 -861 l147 -150 1 1263 0 1262 130 0 130 0 0 -1380
0 -1379 203 -172 c563 -476 1038 -834 2040 -1534 l299 -208 181 12 c353 22
530 66 782 192 523 263 849 763 872 1339 20 477 -141 851 -524 1221 -101 98
-314 279 -327 279 -3 0 -6 -529 -6 -1175 l0 -1175 -125 0 -125 0 0 1283 0
1282 -1263 1034 c-852 699 -1270 1036 -1287 1037 -14 1 -98 -2 -186 -6z m2316
-2645 l0 -125 -1215 0 -1215 0 0 125 0 125 1215 0 1215 0 0 -125z"/>
<path d="M80 1241 l0 -1121 410 0 410 0 0 799 0 799 -382 300 c-211 165 -395
310 -410 322 l-28 21 0 -1120z"/>
<path d="M1160 816 l0 -696 887 0 c754 0 885 2 873 14 -11 9 -1588 1245 -1747
1369 -10 7 -13 -131 -13 -687z"/>
</g>
</svg>
