<svg id="Layer_1" data-name="Layer 1" xmlns="http://www.w3.org/2000/svg" viewBox="0 0 139.55 136.18"><defs><style>.cls-1{fill:#231f20;}</style></defs><title>logo</title><path class="cls-1" d="M163.83,9.69V53.54l13.8,11.33V9.69Zm-6.38,38.6V9.69h-47ZM74.19,110.42v35.45h45.24ZM46.8,89v56.91H67.67V105.31ZM181,86.71q-4.49-8-14.85-16.31l-2.32-1.89v59.83h-6.38V63.27L93.09,10.55a89.17,89.17,0,0,0-12,.79,48.34,48.34,0,0,0-9.42,2.58A41,41,0,0,0,52.76,28.6Q46,38.27,46,51.4a41.62,41.62,0,0,0,1.38,10.19,44.86,44.86,0,0,0,3.62,10,63.29,63.29,0,0,0,9.85,12.86q3,3.25,6.79,6.88V27.22h6.52v70c1.76,1.54,3.63,3.13,5.6,4.75Q92,112.37,105,122q8,5.86,13.9,10t19.86,13.9c3.51-.12,6.51-.29,9-.52a49.73,49.73,0,0,0,6.56-1.13,32.44,32.44,0,0,0,5.62-1.89,40.52,40.52,0,0,0,18.74-14.85A38.71,38.71,0,0,0,185.58,105,37,37,0,0,0,181,86.71Zm-34.25-5.59H84.85V74.73h61.9Z" transform="translate(-46.03 -9.69)"/></svg>