<?xml version="1.0" encoding="utf-8"?>
<!-- Generator: Adobe Illustrator 23.0.1, SVG Export Plug-In . SVG Version: 6.00 Build 0)  -->
<svg version="1.1" id="Layer_1" xmlns="http://www.w3.org/2000/svg" xmlns:xlink="http://www.w3.org/1999/xlink" x="0px" y="0px"
	 viewBox="0 0 240.94 155.91" style="enable-background:new 0 0 240.94 155.91;" xml:space="preserve">
<g>
	<path d="M163.84,9.69v43.85l13.79,11.33V9.69H163.84z M157.45,48.29V9.69h-47L157.45,48.29z M74.19,110.42v35.45h45.24
		L74.19,110.42z M46.8,88.96v56.91h20.87v-40.56L46.8,88.96z M181,86.71c-2.99-5.36-7.94-10.79-14.85-16.32l-2.31-1.89v59.84h-6.39
		V63.27L93.09,10.55c-4.95,0.05-8.95,0.32-12,0.78c-3.11,0.51-6.25,1.38-9.41,2.59C63.56,17.2,57.25,22.1,52.76,28.6
		c-4.49,6.45-6.73,14.05-6.73,22.8c0,3.17,0.46,6.56,1.38,10.19c0.86,3.63,2.07,6.97,3.62,10.02c1.96,3.69,5.24,7.98,9.84,12.87
		c1.97,2.17,4.23,4.46,6.79,6.88V27.22h6.52v70.03c1.77,1.54,3.64,3.12,5.6,4.75c8.12,6.91,16.52,13.56,25.22,19.95
		c5.35,3.91,9.98,7.25,13.9,10.02c3.92,2.76,10.54,7.4,19.86,13.9c3.51-0.12,6.5-0.29,8.98-0.52c2.19-0.23,4.38-0.6,6.56-1.12
		c1.55-0.34,3.43-0.97,5.62-1.89c7.94-3.23,14.19-8.17,18.74-14.85c4.6-6.68,6.91-14.17,6.91-22.46
		C185.58,98.29,184.05,92.19,181,86.71z M146.75,81.12h-61.9v-6.39h61.9V81.12z"/>
</g>
</svg>
